<?xml version="1.0" encoding="utf-8"?>
<!-- Generator: Adobe Illustrator 22.1.0, SVG Export Plug-In . SVG Version: 6.00 Build 0)  -->
<svg version="1.1" id="Ebene_1" xmlns="http://www.w3.org/2000/svg" xmlns:xlink="http://www.w3.org/1999/xlink" x="0px" y="0px"
	 viewBox="0 0 250 250" style="enable-background:new 0 0 250 250;" xml:space="preserve">
<style type="text/css">
	.st0{fill:#CD3732;}
</style>
<path class="st0" d="M230.2,65.7c-1.4,0.9-2.7,2-4.3,2.6c-7.6,2.9-15.2,5.6-22.8,8.5C192.6,80.9,183.2,87,175,94.8
	c-5.8,5.5-11.5,11-17.3,16.6c-1,1-2,2-2.8,3.1c-6.9,9.1-6.5,10.9,2.9,16.9c4.1,2.6,7.9,5.7,12.2,8.8c-1.5,0.9-2.3,1.4-2.9,1.8
	c4.8,4.3,9.4,8.8,14.3,12.8c4.9,3.9,10.1,7.4,15.1,11.5c-1.9-0.6-3.9-1.3-5.8-1.9c-0.2,0.4-0.3,0.7-0.5,1.1
	c3.6,2.1,7.2,4.3,10.9,6.4c1.7,1,3.5,1.7,3.5,4.5c0,1.3,2.3,2.5,3.5,3.8c1.7,1.9,3.4,3.9,5.1,5.9c-0.3,0.4-0.7,0.9-1,1.3
	c-2.1-0.4-4.2-0.9-6.2-1.3c-1.9,4.8-2.9,5.2-9.2,3.3c-3.8,7.7-6.5,8.7-14.7,5.1c-20.9-9.2-40.1-21.2-58.7-34.2
	c-2-1.4-3.9-2.7-6.5-4.4c-2.3,2.3-4.6,4.6-6.8,7c-9.3,10.2-18.6,20.5-28,30.7c-1.1,1.2-2.9,1.7-4.2,2.7c-3.7,2.9-7.3,5.9-11,8.7
	c-1.3,1-2.6,2.4-4,2.5c-6,0.4-11.9,0.6-17.9,0.5c-2.7-0.1-5.4-1.3-8.1-1.5c-2-0.1-4.1,0.7-6.5,1.2c-3.3-9.8-0.8-18.5,5.5-26.8
	c3.3-4.3,6.4-8.8,8.5-13.7c5.5-12.7,14.9-22.6,23.4-33.1c2.9-3.6,5.7-7.2,8.7-10.9c-14.7-14.5-25-31.6-34.4-49.3
	c-0.8-1.5-1.6-3-2.3-4.5c-2.2-5-1.9-5.6,2.9-8c1.1-0.5,2-1.3,3-2.2c3.6-3.3,7.2-6.6,10.8-9.8c0.5-0.4,1.6-0.5,2.2-0.2
	c3.1,1.6,5.9,1,8.8-1.2c-0.3-1-0.5-2.2-0.9-3.6c0.6,0.1,1.1,0.1,1.3,0.3c2.3,2.4,4.6,4.9,6.9,7.3C87,64.9,99.2,77.8,111.4,90.8
	c1.5,1.6,2.9,1.9,4.6,0.2c2.1-2.1,4.2-4.1,6.5-5.9c6.2-5.2,12.4-10.4,18.6-15.5c0.4-0.3,1.1-0.8,1.5-0.6c5.1,2.2,8.1-1.6,11.5-4
	c14.8-10.4,31.1-16.9,49-19.7c3.7-0.6,7.4-1.6,11-2.6c10.5-3,21.1-4.8,32.8-3.2c-7.1,1.8-13.6,3.5-21.5,5.5c2.5-1.6,4-2.6,5.5-3.6
	c-0.2-0.4-0.3-0.7-0.5-1.1c-4.9,1.6-9.8,3.2-15.4,5c1.5,0.7,2,1,3,1.5c-4.6,2.1-8.9,4.1-13.2,6.1c0.1,0.3,0.2,0.6,0.3,0.9
	c6.2-1.2,12.5-2.4,18.7-3.6c0.1,0.4,0.2,0.9,0.3,1.3c-1.5,0.6-2.9,1.2-4.4,1.9c0,0.2,0,0.4,0,0.6c3.9,0,7.8,0,11.9,0
	c-0.1,3.7-1.7,5.5-5,6.5c-4.4,1.3-8.6,3.1-12.9,5.3c5.3,1.4,10.4-0.4,15.5-1.4C229.8,64.8,230,65.3,230.2,65.7z"/>
</svg>
