<?xml version="1.0" encoding="utf-8"?>
<!-- Generator: Adobe Illustrator 22.1.0, SVG Export Plug-In . SVG Version: 6.00 Build 0)  -->
<svg version="1.1" id="Ebene_1" xmlns="http://www.w3.org/2000/svg" xmlns:xlink="http://www.w3.org/1999/xlink" x="0px" y="0px"
	 viewBox="0 0 100 100" style="enable-background:new 0 0 100 100;" xml:space="preserve">
<style type="text/css">
	.st0{fill:#69962D;}
</style>
<path class="st0" d="M93,14.2c-1.3,1-1.8,2.1-1.5,3.7c0.3,1.3-0.9,1.8-1.9,2.4c-3.6,2.5-7.2,5-10.7,7.5c-0.5,0.4-0.9,1-1.3,1.4
	c-0.1,0.2-0.2,0.5-0.3,0.5c-2.4-0.2-2.8,2.4-4.4,3.2c-0.6,0.3-1.3,1.1-1.5,1.8c-0.3,1.2-1,1.8-1.9,2.3c-1.1,0.6-2.2,1.3-2.5,2.6
	c-0.1,0.4-0.4,0.7-0.7,1c-4,3-6.2,7.5-9.2,11.3c-2.8,3.7-5.4,7.5-8.1,11.2c-3.7,5.2-5.7,11.2-8,17.1c-0.5,1.4-1,2.9-1.4,4.4
	c-0.6-0.1-1.2-0.1-1.8-0.2c-0.1,2-0.6,2.4-2.5,2.2c-0.2,0-0.5-0.1-0.6,0c-1.2,1.7-3.1,0.9-4.6,1.1c-0.6,0.1-1.6-0.5-1.9-1.1
	c-1.9-3.9-4.6-7-7.7-9.9c-0.4-0.3-0.7-0.8-0.9-1.2c-1.3-4.3-4.1-7.7-6.4-11.3C11.1,61.1,9,57.9,7,54.6c-0.5-0.8-0.8-1.6-1.1-2.5
	c-0.5-1.4,0-2.5,1.2-3.4c0.2-0.1,0.4-0.2,0.5-0.3c5-3.5,8.4-2,13.9,2.8c3.9,3.4,6.9,7.9,10.4,11.9c0.4,0.4,0.7,0.9,1.1,1.4
	c0.4-0.5,0.8-0.9,1.1-1.4c4.3-8.5,10.3-15.7,16.9-22.4c4.5-4.6,9-9.4,13.7-13.8c5.5-5.2,11.9-9.3,18.6-12.8c2.2-1.2,4.5-1.1,6.9-0.5
	C91,13.8,91.8,14,93,14.2z"/>
</svg>
