<?xml version="1.0" encoding="utf-8"?>
<!-- Generator: Adobe Illustrator 22.1.0, SVG Export Plug-In . SVG Version: 6.00 Build 0)  -->
<svg version="1.1" id="Ebene_1" xmlns="http://www.w3.org/2000/svg" xmlns:xlink="http://www.w3.org/1999/xlink" x="0px" y="0px"
	 viewBox="0 0 1080 1920" style="enable-background:new 0 0 1080 1920;" xml:space="preserve">
<style type="text/css">
	.st0{fill:#FFFFFF;}
</style>
<path d="M31.4,1300.8c5.1-17.1,8.4-30.9,13.3-44.2c28.2-76.3,55.9-152.8,85.4-228.6c20.2-52,43.6-102.8,64.5-154.6
	c6.6-16.3,18.4-18.9,33.5-21.5c48.4-8.3,96.5-18.4,150.9-29c-9-23.6-15.4-42.8-23.4-61.2c-24.4-55.9-45.9-112.2-54.3-173.5
	c-6.6-48,10.4-80.9,51.5-103.3c14-7.7,28.2-15.1,42.8-21.7c84.2-38.3,182.9-3,220.2,83.2C642,607,656,671.6,643.3,738.7
	c-5.6,29.9-12.7,59.5-19,89.2c-2.6,12.3-4.9,24.7-7.6,38.9c26.8,12.2,51.5,3.5,76-0.5c48.9-8,97.8-16,146.4-25.7
	c28.6-5.7,47.1,5.5,58.3,29.9c53.4,115.7,122.2,224.8,152,350.8c6.9,29.1-3.2,44.3-36.8,45c-86.1,1.8-172.2,0.8-258.3,3.1
	c-94.1,2.6-188.4,5.1-282.3,12.3c-119.5,9.2-238.6,23.8-357.9,34.7C87.8,1318.8,59.9,1320.5,31.4,1300.8z M999.7,1230.2
	c-13.5-97.4-43.8-180.8-98.9-253.9c-7.4-9.9-22.4-14.2-34-20.9c-9.6-5.5-19.4-10.7-29-16c4.9-9,5.7-12.9,8-14.3
	c11-6.7,25.8-13.8,16-28.4c-5.7-8.5-20.2-12.6-31.5-15.1c-8.9-1.9-19,1.4-28.5,3c-50.5,8.5-100.8,18.3-151.5,25.5
	c-33.1,4.7-59.8,13.7-78.9,45.5c-16.9,28.2-39.2,27.7-68.9,9.8c-30.9-18.6-56.9-41.8-74.3-73.5c-12.5-22.8-31.2-31.6-55.9-27.5
	c-37.8,6.2-75.8,11.9-112.8,21.4c-11.7,3-24.4,15.5-29.9,26.9c-31.6,66.4-63.8,132.8-90.6,201.2c-19.6,49.9-38,101.2-46,159.8
	c23.3,0,42.3,1.6,60.9-0.3c89-9.2,177.9-19.8,266.9-28.9c36.6-3.7,73.4-5.3,110.2-7.1c73.5-3.6,147-8.7,220.5-9.2
	c58.9-0.4,117.7,5.7,176.6,7.4C950.2,1236.4,972.3,1232.5,999.7,1230.2z M524.7,936.6c62.9-113.9,100.4-224.5,66.4-349.7
	c-14.2-52.3-59-96.5-112.8-103.5c-47.2-6.1-82.9,20.9-116.9,47c-27.4,21-17.2,53.3-12.4,80.9c19.5,111.3,69.9,208.5,140.7,295.6
	C497.5,916.4,508.7,923.2,524.7,936.6z"/>
<path class="st0" d="M999.7,1230.2c-27.4,2.3-49.5,6.2-71.4,5.6c-58.9-1.6-117.8-7.8-176.6-7.4c-73.5,0.5-147,5.6-220.5,9.2
	c-36.8,1.8-73.6,3.3-110.2,7.1c-89,9.1-177.9,19.7-266.9,28.9c-18.6,1.9-37.6,0.3-60.9,0.3c8-58.6,26.5-109.9,46-159.8
	c26.8-68.4,59-134.8,90.6-201.2c5.4-11.4,18.2-23.9,29.9-26.9c37-9.5,75-15.1,112.8-21.4c24.7-4.1,43.4,4.7,55.9,27.5
	c17.4,31.7,43.4,54.9,74.3,73.5c29.7,17.9,52,18.4,68.9-9.8c19.1-31.8,45.8-40.8,78.9-45.5c50.7-7.2,101-17,151.5-25.5
	c9.5-1.6,19.6-5,28.5-3c11.3,2.5,25.8,6.6,31.5,15.1c9.8,14.6-5,21.7-16,28.4c-2.3,1.4-3.1,5.3-8,14.3c9.6,5.3,19.4,10.5,29,16
	c11.6,6.7,26.5,11,34,20.9C955.9,1049.5,986.2,1132.8,999.7,1230.2z M743.4,961.6c-21.4-3.7-39.3-7.4-48.6,12.8
	c-1.9,4.1,7.3,18.6,13.4,20.1C729.3,999.5,740.8,988.5,743.4,961.6z M189.7,1186.1c-18.2-8.8-28.1-16.2-38.7-17.5
	c-5.1-0.6-11.5,10.6-17.4,16.4c8.2,8,15.3,19.4,25.1,22.8C164.1,1209.6,174,1197.6,189.7,1186.1z M616.3,1007
	c10.9,7.6,20,17.7,24.3,15.9c8.1-3.2,13.6-13.3,20.1-20.5c-7.1-4.4-14.3-12.5-21.2-12.2C632.9,990.4,626.5,999.1,616.3,1007z
	 M575.1,1034.4c-26.2-11.6-34-12.3-41.5-1.4c-2.8,4.1-3.9,14.1-1.2,16.6c12.9,11.8,25.8,6.6,37.3-3.7
	C571.7,1044.1,572.2,1040.7,575.1,1034.4z M818.7,946.5c-16.2-14.2-30.4-18-44-0.5c-2.3,3-0.6,13.4,2.7,15.9
	C796.9,976.6,807.2,963.7,818.7,946.5z M253.7,1197.5c8.9-12.1,16.8-19.4,19.4-28.2c0.9-3.2-10.9-10.1-16.9-15.3
	c-6.1,7.4-14,14-17.4,22.4C237.6,1179.7,246.1,1187.1,253.7,1197.5z M475.3,1049.6c-11.1,11-28.3,16.5-15.5,34.7
	c3,4.3,15.8,6.5,20.7,3.7C498.7,1077.6,492.4,1065.4,475.3,1049.6z M431.2,1108.5c-11.6-6.2-18.9-12.5-26.7-13.3
	c-3.8-0.4-8.6,9.6-12.9,14.9c6.6,4.8,12.8,12.2,20,13.3C416.1,1124.2,422.2,1115.7,431.2,1108.5z M337.9,1153
	c-11.1-4.9-18.2-10.8-24.1-9.8c-6.1,1.1-10.9,8.9-16.3,13.8c6.9,4.9,13.5,12.4,20.9,13.5C322.9,1171.2,328.8,1161.6,337.9,1153z"/>
<path class="st0" d="M524.7,936.6c-16-13.4-27.2-20.1-34.9-29.6C419,819.8,368.6,722.7,349.1,611.3c-4.8-27.6-15-59.9,12.4-80.9
	c34-26.1,69.8-53.1,116.9-47c53.8,7,98.6,51.2,112.8,103.5C625.1,712.1,587.6,822.7,524.7,936.6z M559.7,692
	c-3.2-40.2-4.2-77-9.9-113c-2.3-14.4-11.8-30.7-23.1-39.9c-21.7-17.7-80.8-11.2-104.8,7.6c-21.8,17.2-23,33.6-5.3,78.2
	c1.8,4.5,4.1,8.8,5.4,13.4c19.9,68.7,55,132.8,60.7,205.9c0.7,9.6,12.6,24.3,21.4,26c16.3,3.2,31.4-5.6,34.2-25.2
	C545.8,793.1,552.8,741.1,559.7,692z"/>
<path d="M743.4,961.6c-2.6,26.9-14.1,37.9-35.2,32.8c-6.1-1.4-15.3-16-13.4-20.1C704.2,954.3,722.1,957.9,743.4,961.6z"/>
<path d="M189.7,1186.1c-15.7,11.5-25.7,23.5-31,21.7c-9.8-3.3-16.9-14.7-25.1-22.8c5.8-5.8,12.3-17,17.4-16.4
	C161.6,1169.8,171.5,1177.3,189.7,1186.1z"/>
<path d="M616.3,1007c10.2-7.8,16.6-16.6,23.2-16.8c6.9-0.2,14.1,7.8,21.2,12.2c-6.5,7.2-12,17.3-20.1,20.5
	C636.3,1024.6,627.3,1014.5,616.3,1007z"/>
<path d="M575.1,1034.4c-2.9,6.2-3.4,9.7-5.5,11.5c-11.5,10.3-24.4,15.5-37.3,3.7c-2.6-2.4-1.6-12.5,1.2-16.6
	C541.1,1022.2,548.9,1022.8,575.1,1034.4z"/>
<path d="M818.7,946.5c-11.5,17.2-21.8,30.1-41.2,15.4c-3.3-2.5-5.1-12.9-2.7-15.9C788.3,928.5,802.5,932.3,818.7,946.5z"/>
<path d="M253.7,1197.5c-7.6-10.4-16.2-17.7-14.8-21.1c3.4-8.4,11.3-15.1,17.4-22.4c6,5.2,17.8,12.1,16.9,15.3
	C270.6,1178.1,262.7,1185.3,253.7,1197.5z"/>
<path d="M475.3,1049.6c17.1,15.8,23.5,28,5.1,38.4c-4.9,2.8-17.6,0.5-20.7-3.7C446.9,1066.2,464.2,1060.7,475.3,1049.6z"/>
<path d="M431.2,1108.5c-9,7.2-15.1,15.7-19.6,14.9c-7.2-1.2-13.4-8.6-20-13.3c4.3-5.3,9.2-15.3,12.9-14.9
	C412.3,1096,419.6,1102.3,431.2,1108.5z"/>
<path d="M337.9,1153c-9.1,8.6-15,18.2-19.5,17.6c-7.5-1.1-14-8.7-20.9-13.5c5.4-4.9,10.2-12.8,16.3-13.8
	C319.7,1142.2,326.8,1148.1,337.9,1153z"/>
<path d="M559.7,692c-6.8,49.2-13.9,101.1-21.3,153c-2.8,19.6-17.9,28.3-34.2,25.2c-8.8-1.7-20.7-16.4-21.4-26
	c-5.7-73.1-40.8-137.2-60.7-205.9c-1.3-4.6-3.6-8.9-5.4-13.4c-17.7-44.6-16.5-61,5.3-78.2c24-18.9,83.1-25.3,104.8-7.6
	c11.3,9.2,20.9,25.5,23.1,39.9C555.5,615,556.5,651.8,559.7,692z M498.9,735c3.4,0.1,6.8,0.2,10.2,0.2c3.4-39.2,7-78.4,9.9-117.6
	c0.6-7.8-0.2-16.1-2.3-23.5c-6.1-21.2-21.9-29.2-44.6-23.5c-20.5,5.1-26.2,15.5-17.9,40.1C468.2,652.3,483.9,693.5,498.9,735z"/>
<path class="st0" d="M498.9,735c-15-41.4-30.7-82.6-44.7-124.4c-8.3-24.6-2.6-34.9,17.9-40.1c22.7-5.7,38.5,2.3,44.6,23.5
	c2.1,7.5,2.9,15.8,2.3,23.5c-2.9,39.2-6.6,78.4-9.9,117.6C505.7,735.1,502.3,735,498.9,735z"/>
</svg>
