<?xml version="1.0" encoding="utf-8"?>
<!-- Generator: Adobe Illustrator 22.1.0, SVG Export Plug-In . SVG Version: 6.00 Build 0)  -->
<svg version="1.1" id="Ebene_1" xmlns="http://www.w3.org/2000/svg" xmlns:xlink="http://www.w3.org/1999/xlink" x="0px" y="0px"
	 viewBox="0 0 1080 1920" style="enable-background:new 0 0 1080 1920;" xml:space="preserve">
<style type="text/css">
	.st0{fill:#FFFFFF;}
</style>
<path class="st0" d="M116.5,1127.8c-25.1,0.7-31.6-10.8-31.5-30c0.2-28.2-0.7-56.5-1.2-84.7c-0.7-40.4-1.6-80.9-1.8-121.3
	c-0.1-11.2-2.9-25.3,19.8-28.8C106.7,951.6,111.5,1038.5,116.5,1127.8z"/>
<path d="M489.2,450.7c-68.6-3.9-131.9,18.7-195.9,38.7c-111,34.7-179.6,115.1-208.1,220.9C60,803.8,51.8,902.6,63.9,1001.1
	c15.8,128.2,60.8,242.6,153.4,335.4c56.6,56.7,124,93.6,203.2,105.5c46.2,7,93.3,12.7,139.8,11.7c122-2.7,235.3-32.9,330.4-115.4
	c33.2-28.8,56.3-64.4,78.6-100.8c72.1-117.8,89-242.4,40-373c-16.4-43.7-36.6-86.2-57.2-128.2c-8.7-17.8-21.1-34.4-34.7-48.9
	c-50.5-54-105.6-102.8-168.8-141.6c-36.4-22.4-75.2-41.4-109.9-66.1c-40-28.5-83.5-32.7-129.6-30.4
	C502.6,449.6,495.9,450.2,489.2,450.7z"/>
<path d="M1009.4,864.5c49,130.6,32,255.2-40,373c-22.3,36.4-45.4,72.1-78.6,100.8c-95.1,82.5-208.4,112.7-330.4,115.4
	c-46.5,1-93.6-4.7-139.8-11.7c-79.2-11.9-146.6-48.9-203.2-105.5c-92.7-92.8-137.6-207.2-153.4-335.4
	C51.8,902.6,60,803.8,85.2,710.3c28.5-105.8,97.1-186.2,208.1-220.9c64-20,127.3-42.6,195.9-38.7c6.7-0.5,13.4-1.1,20-1.4
	c46.1-2.3,89.7,1.9,129.6,30.4c34.7,24.7,73.4,43.7,109.9,66.1c63.2,38.9,118.3,87.7,168.8,141.6c13.6,14.5,26,31.2,34.7,48.9
	 M430.2,908.2c22.7,0,42.5-0.8,62.2,0.2c18.2,0.9,30.7,9.1,29.6,30c-0.3,5.4-0.1,10.7-0.2,16.1c-0.3,111.1-0.9,222.2-0.6,333.4
	c0,9.7,4.2,27.3,8.3,27.8c28.5,3.8,57.4,4.3,86.2,5.1c2.5,0.1,6.6-5.2,7.5-8.6c6.3-24.5,16.5-49.9-3.2-72.6
	c-14-16-14.5-33.4-12-52.6c4.7-35.8,11.3-71.7,12-107.7c1.6-81.6,0.4-163.3-0.3-244.9c-0.2-25-9-33.1-35.1-32.3
	c-44.2,1.3-88.4,2.8-132.4,6.5c-14.6,1.2-28.7,9.1-42.9,14C417.1,854.6,423.7,881.4,430.2,908.2z M616,666.8
	c-0.4-48.1-18.8-71.2-87.1-76.4c-40.7-3.1-65.4,23.2-66.7,63c-1.8,56.4,43.2,84.7,82.1,83.3C585.4,735.3,616,706.5,616,666.8z"/>
<path class="st0" d="M620.1,1239.6c-14-16-14.5-33.4-12-52.6c4.7-35.8,11.2-71.7,12-107.7c1.6-81.6,0.4-163.3-0.3-244.9
	c-0.2-25-9-33.1-35.1-32.3c-44.2,1.3-88.4,2.8-132.4,6.5c-14.6,1.2-28.7,9.1-42.9,14c7.8,32.1,14.4,58.9,21,85.7
	c22.7,0,42.5-0.8,62.2,0.2c18.2,0.9,30.7,9.1,29.6,30c-0.3,5.4-0.1,10.7-0.2,16.1c-0.3,111.1-0.9,222.2-0.6,333.4
	c0,9.7,4.2,27.3,8.3,27.8c28.5,3.8,57.4,4.3,86.2,5.1c2.5,0.1,6.6-5.2,7.5-8.6C629.6,1287.7,639.8,1262.2,620.1,1239.6z"/>
<path class="st0" d="M528.9,590.4c-40.7-3.1-65.4,23.2-66.7,63c-1.8,56.4,43.2,84.7,82.1,83.3c41.1-1.5,71.7-30.2,71.7-69.9
	C615.6,618.7,597.2,595.6,528.9,590.4z"/>
</svg>
