<?xml version="1.0" encoding="utf-8"?>
<!-- Generator: Adobe Illustrator 22.1.0, SVG Export Plug-In . SVG Version: 6.00 Build 0)  -->
<svg version="1.1" id="Ebene_1" xmlns="http://www.w3.org/2000/svg" xmlns:xlink="http://www.w3.org/1999/xlink" x="0px" y="0px"
	 viewBox="0 0 1080 1920" style="enable-background:new 0 0 1080 1920;" xml:space="preserve">
<style type="text/css">
	.st0{fill:#FFFFFF;}
</style>
<path class="st0" d="M919.7,832.3c-3.2,100.9,4,196.7-18.2,294.1c-36.2,1.9-72.7,4.5-109.3,5.5c-36.9,1.1-74-0.6-110.9,1.3
	c-50.3,2.5-100.5,9.8-150.8,10.6c-89.5,1.4-179.2,15.5-268.7-4.1c-19.9-4.4-41.6-0.3-62.5,0.1c-38.6,0.8-43.6-3.4-51.5-40.7
	c-14.1-66.6-15.6-134.4-14.9-201.9c0.4-42,4.8-42.3,45.5-44.7c69-4.1,138-7.7,206.3,6.5c26.2,5.5,52.2,13,77.5,21.9
	c47.5,16.6,96.8,17.6,146,19.3c29.1,1,52-15.4,69.5-37c12.2-15.1,25.6-19.8,44.4-20.5c50.4-1.8,100.8-6,151.2-9.1
	C886.7,832.9,900.1,832.8,919.7,832.3z"/>
<path class="st0" d="M700.6,814.3c-5.6-24.6-10.5-42.3-13.4-60.4c-3.2-20-14.6-30.4-33.6-33.8c-9.7-1.7-19.4-4.4-29.1-4.5
	c-44.3-0.4-88.7-1.5-132.9,0.5c-65.2,2.9-88.9,27.2-94.8,92.3c-0.3,3.6-1.2,7.2-2.7,15.6c-85.1,4.9-172.2-13.5-257.4,8.4
	c-3-27.5-9.5-54.4-8-80.9c3.6-67,13.3-132.9,75.4-175.3c28.1-19.2,59.6-27.8,93.3-31.1c120.2-11.7,240.9-7.5,361.4-9.5
	c19.6-0.3,39.2,3.6,58.8,5.5c44,4.1,88.3,6.6,132.1,12.7c70.7,9.8,94.5,40.2,91.9,112c-1,27.1-0.1,54.3-2.9,81.2
	c-4.3,41.2-17.3,54.2-58.4,57.3C821.5,808.8,762.6,811,700.6,814.3z"/>
<path class="st0" d="M1021,806.3c3,46.3,7.7,88.8,7.9,131.4c0.2,38.1-4.4,76.2-7.3,114.3c-0.7,9.8-2.3,19.6-4.7,29.1
	c-11.7,46.8-23.1,54.1-73.5,47.8c0.7-15.2,1.8-30.5,2-45.8c1.1-72.6,1.8-145.1,2.8-217.7c0.4-25,11.1-42.2,37.1-47.8
	C995.8,815.3,1005.8,811.2,1021,806.3z"/>
<path class="st0" d="M102.8,830c-23.4,7.3-36.5-0.8-42.2-20.7c-4-14.1-9.5-28.9-8.7-43.1c2.6-44.1,5.1-88.5,13.1-131.8
	c7.6-41.2,39.6-56.9,79.6-47.8c-13,39-30.8,77.3-37.7,117.6C99.8,744.5,103.7,786.7,102.8,830z"/>
<path class="st0" d="M969.4,589.6c28.7,21.8,34.6,49.1,38.8,76.8c2.9,19.4,4.3,39,6.4,58.5c3.7,34.9-3.1,47.1-38.2,64.8
	c-19.5-31.1,2-64.2-4.2-95.9C965.9,662,970,628.4,969.4,589.6z"/>
<path class="st0" d="M116.5,1127.8c-25.1,0.7-31.6-10.8-31.5-30c0.2-28.2-0.7-56.5-1.2-84.7c-0.7-40.4-1.6-80.9-1.8-121.3
	c-0.1-11.2-2.9-25.3,19.8-28.8C106.7,951.6,111.5,1038.5,116.5,1127.8z"/>
<path class="st0" d="M466.8,777.5c6.5,23.4,6.4,49.1,19.2,60.8c11.5,10.6,37.4,4.4,56.3,8.6c26.7,5.9,51,1.7,75.2-10
	c17.8-8.6,26.7-20.2,23.1-40.8c-2.5-14.1-3-28.6-4.7-47.1c28.3,29.7,33.6,76.9,14.5,99.3c-11.8,13.9-26.4,22.6-45.1,21.1
	c-34.3-2.7-68.9-4.1-102.7-9.9c-36.1-6.2-46.1-25.5-37.7-62.2C466.2,792.1,466,786.4,466.8,777.5z"/>
<path class="st0" d="M607.5,809.2c-32.6,19.9-60.9,4-91.7,4c-2.7-15.4-5.2-29.4-8.4-47.4c32.5-3.1,62-8.6,94.2,1.3
	C603.6,781,605.4,794,607.5,809.2z"/>
<path d="M703.9,1382.2c-115.9-1.7-231.7-3.1-347.6-5.2c-46.7-0.9-93.7-0.4-139.9-6.2c-66.8-8.3-111.2-51.7-123.3-117.1
	c-6.3-34-9-68.7-11-103.3c-6.6-115.8-13.6-231.7-17.4-347.7c-1.9-56.8,0.5-114,5.1-170.7c5-60.8,35.9-111.8,71.2-159.8
	c17.7-24.1,41.5-38,72.4-40c148.4-9.6,296.7-21.8,445.3-28.7c58.5-2.7,118,3,176.4,10c82,9.8,136.6,58.3,166.8,134
	c6.7,16.8,10.9,35.5,11.8,53.5c7.5,142.3,20.4,284.8,18.3,427.1c-1.1,77.8-25.5,155.9-44.4,232.7c-7,28.5-27.7,53.9-43.8,79.7
	c-17.1,27.4-42,43.6-75.4,45.4c-54.8,2.9-109.6,6.4-164.4,9.6C703.9,1391.1,703.9,1386.7,703.9,1382.2z M707.8,1333
	c0,3.9,0,7.8,0,11.8c46.8-1.9,93.5-4.2,140.3-5.4c44.8-1.2,70.9-26.7,86.5-65.5c34-84.1,52.5-171.8,49.1-262.5
	c-4.5-120.1-12.7-240.2-20.2-360.2c-1.6-26.4-4.8-53-10.8-78.7c-17.4-74.8-83.2-117.6-159-111c-35.6,3.1-72.2-3.1-108.2-6.1
	c-20.2-1.7-40.5-8.6-60.4-7.6c-122.1,5.7-244.2,12.5-366.3,20.2c-43.7,2.8-79,25.9-99.1,63.2c-30.2,56-48.5,116.5-46,181.5
	c6,152.6,11.9,305.2,18,457.9c0.4,10.2,1,20.4,2.2,30.5c10.6,85.2,47.6,122.3,134.4,129.7c32.2,2.7,65-2.8,97.5-2.5
	C479.8,1329.3,593.8,1331.3,707.8,1333z"/>
<path class="st0" d="M707.8,1333c-114-1.7-228-3.7-342-4.8c-32.5-0.3-65.3,5.2-97.5,2.5c-86.8-7.4-123.9-44.5-134.4-129.7
	c-1.3-10.1-1.8-20.3-2.2-30.5c-6-152.6-12-305.2-18-457.9c-2.5-65,15.7-125.6,46-181.5c20.2-37.3,55.4-60.4,99.1-63.2
	c122-7.7,244.1-14.4,366.3-20.2c20-0.9,40.2,6,60.4,7.6c36,3,72.6,9.2,108.2,6.1c75.8-6.6,141.5,36.3,159,111
	c6,25.7,9.2,52.3,10.8,78.7c7.5,120,15.6,240,20.2,360.2c3.4,90.6-15.1,178.3-49.1,262.5c-15.7,38.8-41.7,64.3-86.5,65.5
	c-46.8,1.2-93.5,3.6-140.3,5.4C707.8,1340.8,707.8,1336.9,707.8,1333z M803.5,672.7c-22-5.2-40.7-13.9-59.3-13.5
	c-156.6,3.8-313.3,8.9-469.8,15c-11.2,0.4-30.4,11.5-31.2,19.2c-2.4,22.8,19,21.3,34.6,23.4c6,0.8,12.2,0,18.3-0.6
	c150.2-13.8,300.5-17.8,451-3.9C770.1,714.4,792.8,714,803.5,672.7z M234.3,875.6c11,2.9,18.6,6.6,26.3,6.8
	c171.2,5.3,342.3,7.6,513.2-5.8c21.3-1.7,45.2-6.1,41.6-32.6c-3.4-24.8-27.5-17.1-45.1-15.9c-10.2,0.7-20.3,1.4-30.5,2.5
	c-105.4,11.5-210.7,21.7-317.1,13c-46.6-3.8-93.8-1.9-140.7-1.5C262.6,842.3,240.2,840.4,234.3,875.6z M755.4,1021.8
	c-12.9-0.2-24.9-1.9-36.4-0.3c-101.2,14.5-202.4,6.1-303.9,3.1c-52-1.5-104.5,10.4-156.4,18.5c-10,1.6-18.3,14-32.1,25.2
	c15,4.9,21,9.2,26.1,8.3c105.1-18.6,210.3-6,315.5-1.7c48.5,2,97.3-3.2,145.9-5C742.1,1068.8,760.6,1059.3,755.4,1021.8z"/>
<path d="M803.5,672.7c-10.8,41.3-33.4,41.7-56.4,39.6c-150.5-13.9-300.8-9.9-451,3.9c-6.1,0.6-12.3,1.4-18.3,0.6
	c-15.6-2.1-37.1-0.6-34.6-23.4c0.8-7.7,20-18.7,31.2-19.2c156.6-6.1,313.2-11.2,469.8-15C762.8,658.8,781.5,667.4,803.5,672.7z"/>
<path d="M234.3,875.6c5.9-35.1,28.3-33.3,47.8-33.4c46.9-0.4,94.1-2.4,140.7,1.5c106.4,8.8,211.7-1.4,317.1-13
	c10.1-1.1,20.3-1.8,30.5-2.5c17.6-1.2,41.7-8.9,45.1,15.9c3.6,26.5-20.3,31-41.6,32.6c-170.9,13.3-342.1,11-513.2,5.8
	C252.9,882.2,245.3,878.5,234.3,875.6z"/>
<path d="M755.4,1021.8c5.2,37.5-13.3,47-41.2,48c-48.7,1.8-97.4,7-145.9,5c-105.3-4.2-210.4-16.9-315.5,1.7
	c-5.1,0.9-11.1-3.3-26.1-8.3c13.7-11.2,22.1-23.6,32.1-25.2c51.9-8.2,104.4-20,156.4-18.5c101.5,3,202.7,11.4,303.9-3.1
	C730.6,1019.9,742.5,1021.6,755.4,1021.8z"/>
</svg>
