<?xml version="1.0" encoding="utf-8"?>
<!-- Generator: Adobe Illustrator 22.1.0, SVG Export Plug-In . SVG Version: 6.00 Build 0)  -->
<svg version="1.1" id="Ebene_1" xmlns="http://www.w3.org/2000/svg" xmlns:xlink="http://www.w3.org/1999/xlink" x="0px" y="0px"
	 viewBox="0 0 100 100" style="enable-background:new 0 0 100 100;" xml:space="preserve">
<style type="text/css">
	.st0{fill:#FFFFFF;}
</style>
<path d="M55.8,79.1c0.6-3.8,1.3-7.7,2.1-12.7c-16.2,0-31.8,0-47.9,0c0-12.1,0-23.2,0-35.5c14.6,0,29.1,0,42.4,0
	c1.8-5.1,3.1-8.8,4.5-12.7C67,28.7,76,38.1,86,48.6c-5.9,12.9-18.6,21-28.6,31.4C56.9,79.7,56.3,79.4,55.8,79.1z M15.9,62.6
	c0.4,0.3,0.8,0.7,1.2,1c6.6-5.7,6.5-16,13.8-21.4c-2.8,6.7-5.7,13.4-8.5,20.1c0.6,0.4,1.1,0.8,1.7,1.2c8.2-4.7,7.7-16.4,16.2-21.2
	c-3.4,6.7-6.9,13.4-10.3,20.1c0.5,0.4,1,0.7,1.4,1.1c9.5-1.8,9.6-13.3,16.4-17.9c0.4,0.3,0.8,0.6,1.2,0.9
	c-3.2,5.4-6.4,10.7-9.9,16.5c6.2,1.4,7.3-3.4,9.3-6.6c2.2-3.4,4.1-7.1,6.1-10.6c0.7,0.4,1.3,0.8,2,1.1c-2.9,5.5-5.8,11-8.7,16.5
	c0.4,0.4,0.9,0.7,1.3,1.1C57.9,62,56.8,50.9,63,46.4c0.4,0.2,0.9,0.5,1.3,0.7c-2.7,5.5-5.5,11-8.2,16.4c1.8,0.8,3.4,1.5,5.1,2.2
	c1.4-2.8,2.8-5.8,4.2-8.8c1.4-2.8,2.8-5.6,4.2-8.4c0.7,0.4,1.4,0.7,2.1,1.1c-3.4,7.3-6.8,14.5-10.2,21.8c0.3,0.2,0.6,0.4,0.9,0.7
	c7.2-7.5,14.5-15,20.8-21.6C73.5,41.4,64.5,33,55.6,24.6c0.5-0.6,1-1.3,1.5-1.9c0,3.9,0,7.8,0,11.8c-2.3-0.5-4.2-1.2-6.1-1.3
	c-10.2-0.1-20.5-0.1-30.7,0.2c-8.8,0.2-8.8,0.4-7.8,9.4c0.9-1.2,1.9-2.4,2.8-3.6c0.3,0.2,0.6,0.3,0.8,0.5
	c-1.5,6.7-3.1,13.5-4.6,20.2c0.7,0.2,1.4,0.4,2.1,0.6c2.5-6.5,5.1-13,7.6-19.6c0.6,0.3,1.3,0.6,1.9,0.8
	C20.7,48.7,18.3,55.6,15.9,62.6z"/>
<path class="st0" d="M15.9,62.6c2.4-7,4.9-13.9,7.3-20.9c-0.6-0.3-1.3-0.6-1.9-0.8c-2.5,6.5-5.1,13-7.6,19.6
	c-0.7-0.2-1.4-0.4-2.1-0.6c1.5-6.7,3.1-13.5,4.6-20.2c-0.3-0.2-0.6-0.3-0.8-0.5c-0.9,1.2-1.9,2.4-2.8,3.6c-1-9-1-9.2,7.8-9.4
	c10.2-0.3,20.5-0.2,30.7-0.2c1.9,0,3.8,0.8,6.1,1.3c0-4,0-7.9,0-11.8c-0.5,0.6-1,1.3-1.5,1.9c9,8.4,17.9,16.8,27.7,25.9
	c-6.3,6.6-13.6,14.1-20.8,21.6c-0.3-0.2-0.6-0.4-0.9-0.7c3.4-7.3,6.8-14.5,10.2-21.8c-0.7-0.4-1.4-0.7-2.1-1.1
	c-1.4,2.8-2.8,5.6-4.2,8.4c-1.4,3-2.8,5.9-4.2,8.8c-1.7-0.7-3.3-1.4-5.1-2.2c2.7-5.4,5.4-10.9,8.2-16.4c-0.4-0.2-0.9-0.5-1.3-0.7
	c-6.2,4.5-5.1,15.6-13.8,17.9c-0.4-0.4-0.9-0.7-1.3-1.1c2.9-5.5,5.8-11,8.7-16.5c-0.7-0.4-1.3-0.8-2-1.1c-2,3.6-3.9,7.2-6.1,10.6
	c-2.1,3.2-3.1,8-9.3,6.6c3.5-5.8,6.7-11.1,9.9-16.5c-0.4-0.3-0.8-0.6-1.2-0.9c-6.8,4.6-7,16.1-16.4,17.9c-0.5-0.4-1-0.7-1.4-1.1
	c3.4-6.7,6.9-13.4,10.3-20.1c-8.5,4.8-8,16.5-16.2,21.2c-0.6-0.4-1.1-0.8-1.7-1.2c2.8-6.7,5.7-13.4,8.5-20.1
	c-7.4,5.4-7.3,15.7-13.8,21.4C16.7,63.2,16.3,62.9,15.9,62.6z"/>
</svg>
