<?xml version="1.0" encoding="utf-8"?>
<!-- Generator: Adobe Illustrator 22.1.0, SVG Export Plug-In . SVG Version: 6.00 Build 0)  -->
<svg version="1.1" id="Ebene_1" xmlns="http://www.w3.org/2000/svg" xmlns:xlink="http://www.w3.org/1999/xlink" x="0px" y="0px"
	 viewBox="0 0 1080 1920" style="enable-background:new 0 0 1080 1920;" xml:space="preserve">
<style type="text/css">
	.st0{fill:#FFFFFF;}
</style>
<path d="M57.3,1026.8c-1.6-43-3.9-85.9-4.4-128.9c-0.3-25.1-5.6-47.9-17-70.6c-7-13.8-11.6-31-10.7-46.3
	c3.3-53.9,9.2-107.7,14.8-161.4c2.5-23.6,19.3-39.4,39.3-45c80.2-22.6,159.8-48.4,243.4-56.6c20.8-2,41.6-3.4,62.5-4.4
	c31.9-1.5,63.8-3,95.7-3.5c48-0.8,96.1,1.3,143.9-1.7c41.1-2.6,80.9,0,120.6,9.9c11.7,2.9,24.4,2.5,36.7,2.6
	c55.4,0.6,110.4,2.7,161.8,27.2c2.2,1.1,4.6,2.1,7,2.3c62.1,6.1,79.3,50.6,87.3,102.5c5.6,36.4,10.3,72.8,15.3,109.3
	c0.3,2.4-0.4,4.9-0.3,7.4c0.9,65,2.7,130,2.3,195c-0.2,36.8-3.8,73.6-6.6,110.3c-0.8,9.7-3.7,19.5-7.1,28.6
	c-16.7,44.9-38.7,59.8-86.7,56.6c-55.4-3.8-110.5-2.5-166,1.8c-48.9,3.8-98.4-1.5-147.7-0.9c-30.7,0.4-61.2,5.2-91.9,6.6
	c-38.1,1.7-76.4,0.8-114.4,3.1c-64,3.9-127.3,2.7-191.1-7.9c-37.1-6.2-76.1,0.2-114.3-1c-16.9-0.5-34.4-3.6-50.4-9
	c-25.2-8.6-29.4-17.6-28.1-44.9c1.3-27,2.4-54.1,3.7-81.1C55.7,1026.8,56.5,1026.8,57.3,1026.8z M919.7,832.3
	c-19.6,0.6-33,0.6-46.3,1.4c-50.4,3.1-100.8,7.3-151.2,9.1c-18.8,0.7-32.2,5.4-44.4,20.5c-17.4,21.6-40.4,37.9-69.5,37
	c-49.2-1.7-98.5-2.7-146-19.3c-25.3-8.8-51.3-16.4-77.5-21.9c-68.2-14.2-137.3-10.6-206.3-6.5c-40.8,2.4-45.1,2.7-45.5,44.7
	c-0.7,67.5,0.8,135.2,14.9,201.9c7.9,37.3,12.9,41.5,51.5,40.7c20.9-0.4,42.6-4.5,62.5-0.1c89.5,19.6,179.2,5.5,268.7,4.1
	c50.3-0.8,100.5-8,150.8-10.6c36.9-1.9,73.9-0.2,110.9-1.3c36.5-1.1,73.1-3.6,109.3-5.5C923.7,1029,916.5,933.1,919.7,832.3z
	 M700.6,814.3c62-3.3,120.9-5.5,179.6-9.9c41.1-3.1,54.1-16,58.4-57.3c2.8-26.9,2-54.1,2.9-81.2c2.6-71.8-21.2-102.2-91.9-112
	c-43.8-6.1-88.1-8.5-132.1-12.7c-19.6-1.8-39.2-5.8-58.8-5.5c-120.5,2-241.1-2.2-361.4,9.5c-33.7,3.3-65.2,11.9-93.3,31.1
	c-62,42.4-71.7,108.2-75.4,175.3c-1.4,26.5,5.1,53.3,8,80.9c85.2-21.9,172.3-3.5,257.4-8.4c1.5-8.4,2.4-12,2.7-15.6
	c5.8-65.1,29.6-89.4,94.8-92.3c44.2-2,88.6-0.9,132.9-0.5c9.7,0.1,19.4,2.8,29.1,4.5c19,3.4,30.4,13.8,33.6,33.8
	C690.1,772,695.1,789.7,700.6,814.3z M1021,806.3c-15.2,4.9-25.2,9-35.6,11.3c-26.1,5.7-36.8,22.8-37.1,47.8
	c-1,72.6-1.8,145.1-2.8,217.7c-0.2,15.3-1.3,30.5-2,45.8c50.4,6.4,61.8-0.9,73.5-47.8c2.4-9.5,3.9-19.4,4.7-29.1
	c2.9-38.1,7.5-76.2,7.3-114.3C1028.7,895.1,1024,852.5,1021,806.3z M102.8,830c0.9-43.3-2.9-85.5,4.1-125.9
	c7-40.2,24.8-78.6,37.7-117.6c-40-9.1-72,6.6-79.6,47.8c-8,43.3-10.4,87.7-13.1,131.8c-0.8,14.2,4.7,29,8.7,43.1
	C66.2,829.2,79.4,837.3,102.8,830z M969.4,589.6c0.5,38.8-3.5,72.5,2.7,104.2c6.2,31.7-15.3,64.8,4.2,95.9
	c35.1-17.7,41.9-29.9,38.2-64.8c-2.1-19.5-3.5-39.1-6.4-58.5C1004,638.6,998.1,611.4,969.4,589.6z M116.5,1127.8
	c-5-89.3-9.8-176.2-14.7-264.8c-22.7,3.5-19.8,17.5-19.8,28.8c0.2,40.5,1.2,80.9,1.8,121.3c0.5,28.2,1.4,56.5,1.2,84.7
	C84.9,1117,91.4,1128.6,116.5,1127.8z M466.8,777.5c-0.8,8.9-0.7,14.6-1.9,19.9c-8.3,36.7,1.6,56,37.7,62.2
	c33.8,5.8,68.4,7.2,102.7,9.9c18.6,1.5,33.2-7.2,45.1-21.1c19.1-22.5,13.8-69.7-14.5-99.3c1.8,18.5,2.3,33,4.7,47.1
	c3.6,20.5-5.3,32.2-23.1,40.8c-24.2,11.7-48.4,15.8-75.2,10c-18.9-4.2-44.8,2-56.3-8.6C473.3,826.6,473.4,800.9,466.8,777.5z
	 M607.5,809.2c-2.1-15.2-3.9-28.3-5.9-42.1c-32.2-9.9-61.6-4.3-94.2-1.3c3.2,18,5.6,32,8.4,47.4
	C546.6,813.3,574.9,829.1,607.5,809.2z"/>
<path class="st0" d="M919.7,832.3c-3.2,100.9,4,196.7-18.2,294.1c-36.2,1.9-72.7,4.5-109.3,5.5c-36.9,1.1-74-0.6-110.9,1.3
	c-50.3,2.5-100.5,9.8-150.8,10.6c-89.5,1.4-179.2,15.5-268.7-4.1c-19.9-4.4-41.6-0.3-62.5,0.1c-38.6,0.8-43.6-3.4-51.5-40.7
	c-14.1-66.6-15.6-134.4-14.9-201.9c0.4-42,4.8-42.3,45.5-44.7c69-4.1,138-7.7,206.3,6.5c26.2,5.5,52.2,13,77.5,21.9
	c47.5,16.6,96.8,17.6,146,19.3c29.1,1,52-15.4,69.5-37c12.2-15.1,25.6-19.8,44.4-20.5c50.4-1.8,100.8-6,151.2-9.1
	C886.7,832.9,900.1,832.8,919.7,832.3z"/>
<path class="st0" d="M700.6,814.3c-5.6-24.6-10.5-42.3-13.4-60.4c-3.2-20-14.6-30.4-33.6-33.8c-9.7-1.7-19.4-4.4-29.1-4.5
	c-44.3-0.4-88.7-1.5-132.9,0.5c-65.2,2.9-88.9,27.2-94.8,92.3c-0.3,3.6-1.2,7.2-2.7,15.6c-85.1,4.9-172.2-13.5-257.4,8.4
	c-3-27.5-9.5-54.4-8-80.9c3.6-67,13.3-132.9,75.4-175.3c28.1-19.2,59.6-27.8,93.3-31.1c120.2-11.7,240.9-7.5,361.4-9.5
	c19.6-0.3,39.2,3.6,58.8,5.5c44,4.1,88.3,6.6,132.1,12.7c70.7,9.8,94.5,40.2,91.9,112c-1,27.1-0.1,54.3-2.9,81.2
	c-4.3,41.2-17.3,54.2-58.4,57.3C821.5,808.8,762.6,811,700.6,814.3z"/>
<path class="st0" d="M1021,806.3c3,46.3,7.7,88.8,7.9,131.4c0.2,38.1-4.4,76.2-7.3,114.3c-0.7,9.8-2.3,19.6-4.7,29.1
	c-11.7,46.8-23.1,54.1-73.5,47.8c0.7-15.2,1.8-30.5,2-45.8c1.1-72.6,1.8-145.1,2.8-217.7c0.4-25,11.1-42.2,37.1-47.8
	C995.8,815.3,1005.8,811.2,1021,806.3z"/>
<path class="st0" d="M102.8,830c-23.4,7.3-36.5-0.8-42.2-20.7c-4-14.1-9.5-28.9-8.7-43.1c2.6-44.1,5.1-88.5,13.1-131.8
	c7.6-41.2,39.6-56.9,79.6-47.8c-13,39-30.8,77.3-37.7,117.6C99.8,744.5,103.7,786.7,102.8,830z"/>
<path class="st0" d="M969.4,589.6c28.7,21.8,34.6,49.1,38.8,76.8c2.9,19.4,4.3,39,6.4,58.5c3.7,34.9-3.1,47.1-38.2,64.8
	c-19.5-31.1,2-64.2-4.2-95.9C965.9,662,970,628.4,969.4,589.6z"/>
<path class="st0" d="M116.5,1127.8c-25.1,0.7-31.6-10.8-31.5-30c0.2-28.2-0.7-56.5-1.2-84.7c-0.7-40.4-1.6-80.9-1.8-121.3
	c-0.1-11.2-2.9-25.3,19.8-28.8C106.7,951.6,111.5,1038.5,116.5,1127.8z"/>
<path class="st0" d="M466.8,777.5c6.5,23.4,6.4,49.1,19.2,60.8c11.5,10.6,37.4,4.4,56.3,8.6c26.7,5.9,51,1.7,75.2-10
	c17.8-8.6,26.7-20.2,23.1-40.8c-2.5-14.1-3-28.6-4.7-47.1c28.3,29.7,33.6,76.9,14.5,99.3c-11.8,13.9-26.4,22.6-45.1,21.1
	c-34.3-2.7-68.9-4.1-102.7-9.9c-36.1-6.2-46.1-25.5-37.7-62.2C466.2,792.1,466,786.4,466.8,777.5z"/>
<path class="st0" d="M607.5,809.2c-32.6,19.9-60.9,4-91.7,4c-2.7-15.4-5.2-29.4-8.4-47.4c32.5-3.1,62-8.6,94.2,1.3
	C603.6,781,605.4,794,607.5,809.2z"/>
</svg>
